<svg xmlns="http://www.w3.org/2000/svg" viewBox="0 0 52.08 87.55"><defs><style>.cls-1{fill:#fff;}.cls-1,.cls-2{stroke:#000;stroke-miterlimit:10;}</style></defs><title>Element 3</title><g id="Ebene_2" data-name="Ebene 2"><g id="Ebene_1-2" data-name="Ebene 1"><path class="cls-1" d="M26,.5V6.87H51.5V.5Zm2.57,4.44a1.48,1.48,0,0,1-1.44-1.52,1.44,1.44,0,1,1,2.87,0A1.48,1.48,0,0,1,28.57,4.94Z"/><rect class="cls-1" x="0.5" y="0.5" width="25.5" height="6.37"/><path class="cls-2" d="M30,3.42a1.44,1.44,0,1,1-2.87,0,1.44,1.44,0,1,1,2.87,0Z"/><path class="cls-2" d="M30,3.42a1.44,1.44,0,1,1-2.87,0,1.44,1.44,0,1,1,2.87,0Z"/><path class="cls-1" d="M10.09,6.87c0,7.64-4.29,13.81-9.59,13.81V6.87Z"/><path class="cls-1" d="M26.14,34.17,19.69,87H.5V20.68c5.3,0,9.59-6.17,9.59-13.81H26V9.7l.09,15.1Z"/><path class="cls-1" d="M30.58,6.87c-.12,20.3-4.11,18-4.41,17.75L26.09,9.67V6.87Z"/><path class="cls-1" d="M51.58,87l-19.19,0L26.14,34.17l-.05-9.37c.3.21,4.37,2.58,4.49-17.93H42c0,7.61,4.26,13.77,9.54,13.81Z"/><path class="cls-1" d="M26.09,24.8s0,0,0,0"/><path class="cls-1" d="M51.52,20.68c-5.28,0-9.54-6.2-9.54-13.81H51.5Z"/><path class="cls-1" d="M51.58,20.68h-.06"/></g></g></svg>