<svg xmlns="http://www.w3.org/2000/svg" viewBox="0 0 982.91 380"><defs><style>.cls-1{fill:#1a1a1a;}</style></defs><title>LogoBlack</title><g id="Ebene_2" data-name="Ebene 2"><g id="Ebene_1-2" data-name="Ebene 1"><path class="cls-1" d="M110,0h0A110,110,0,0,0,0,110V270A110,110,0,0,0,110,380h0A110,110,0,0,0,220,270V110A110,110,0,0,0,110,0Zm95,270a95,95,0,0,1-95,95h0a95,95,0,0,1-95-95V110a95,95,0,0,1,95-95h0a95,95,0,0,1,95,95Z"/><path class="cls-1" d="M357.77,0h0a110,110,0,0,0-110,110V270a110,110,0,0,0,110,110h0a110,110,0,0,0,110-110V110A110,110,0,0,0,357.77,0Zm95,270a95,95,0,0,1-95,95h0a95,95,0,0,1-95-95V110a95,95,0,0,1,95-95h0a95,95,0,0,1,95,95Z"/><rect class="cls-1" x="598.04" y="110.33" width="15" height="269.67"/><path class="cls-1" d="M853.31,0H495.54V15H853.31a95,95,0,0,1,95,95V270a95,95,0,0,1-95,95h-95V110.33h-15V380h110a110,110,0,0,0,110-110V110A110,110,0,0,0,853.31,0Z"/><circle class="cls-1" cx="232.1" cy="372.5" r="7.5"/><circle class="cls-1" cx="478.34" cy="372.5" r="7.5"/><circle class="cls-1" cx="724.57" cy="372.5" r="7.5"/><circle class="cls-1" cx="975.41" cy="372.5" r="7.5"/></g></g></svg>