<svg xmlns="http://www.w3.org/2000/svg" viewBox="0 0 134.35 67.56"><defs><style>.cls-1{fill:#fff;}.cls-1,.cls-2{stroke:#000;stroke-miterlimit:10;}.cls-2{fill:none;}</style></defs><title>Element 7</title><g id="Ebene_2" data-name="Ebene 2"><g id="Ebene_1-2" data-name="Ebene 1"><path class="cls-1" d="M133.85,51.67a15.35,15.35,0,0,1-15.34,15.39H15C7,67.06.5,60.18.5,51.67"/><line class="cls-2" x1="133.85" y1="51.67" x2="100.79" y2="51.67"/><path class="cls-2" d="M100.79,13.74V51.67H.5V.53H4.81C4.81,10.19,13.2,18,23.58,18S42.29,10.24,42.35.62L58.5,4.25,68.1,6.4l9.6,2.16Z"/><line class="cls-2" x1="42.35" y1="0.62" x2="41.89" y2="0.53"/><path class="cls-2" d="M68.1,6.07c0,10.58-3.55,19.14-7.94,19.14"/><path class="cls-2" d="M77.7,8.44c0,10.57-3.56,19.13-8,19.13"/><path class="cls-2" d="M58.51,4.17c0,10.58-3.56,19.14-7.95,19.14"/><path class="cls-2" d="M42.35.62V.53"/><line class="cls-2" x1="5.32" y1="0.53" x2="4.81" y2="0.53"/><line class="cls-2" x1="0.5" y1="0.53" x2="0.04" y2="0.53"/><path class="cls-2" d="M133.85,51.67c0-21-14.79-37.93-33.06-37.93"/></g></g></svg>